# xmcd
#
# Track frame offsets:
#	150
#	13435
#	26280
#	41117
#	55320
#	65845
#	77565
#	91072
#	103210
#	116440
#	129787
#	143710
#	155607
#	165387
#	174690
#	185012
#	197822
#	209317
#	222645
#	243052
#
# Disc length: 3419 seconds
#
# Revision: 1
# Processed by: cddbd v1.4PL0 Copyright (c) Steve Scherf et al.
# Submitted via: audiograbber 1.82.01
#
DISCID=1c0d5914
DTITLE=Various Artist - Country Music Hall Of Fame Volume 2
DYEAR=1900
DGENRE=Country
TTITLE0=Merle Haggard - The Way I Am
TTITLE1=Merle Haggard - I'm Always On A Mountain When I Fall
TTITLE2=Merle Haggard - When My Blue Moon Turns To Gold Again
TTITLE3=Merle Haggard - Ramblin' Fever
TTITLE4=Merle Haggard - From Graceland To The Promised Land
TTITLE5=Lefty Frizzell - I Never Go Around Mirrors
TTITLE6=Lefty Frizzell - I Can't Get Over You To Save My Life
TTITLE7=Lefty Frizzell - Railroad Lady
TTITLE8=Lefty Frizzell - Lucky Arms
TTITLE9=Lefty Frizzell - Fallin'
TTITLE10=Loretta Lynn - She's Got You
TTITLE11=Loretta Lynn - Out Of My Head And Back In My Bed
TTITLE12=Loretta Lynn - Trouble In Paradise
TTITLE13=Loretta Lynn - Fist City
TTITLE14=Loretta Lynn - You're Lookin' At Country
TTITLE15=Marty Robbins - Crawling On My Knees
TTITLE16=Marty Robbins - Life
TTITLE17=Marty Robbins - Don't You Think
TTITLE18=Marty Robbins - Love Me
TTITLE19=Marty Robbins - Shotgun Rider
EXTD=
EXTT0=
EXTT1=
EXTT2=
EXTT3=
EXTT4=
EXTT5=
EXTT6=
EXTT7=
EXTT8=
EXTT9=
EXTT10=
EXTT11=
EXTT12=
EXTT13=
EXTT14=
EXTT15=
EXTT16=
EXTT17=
EXTT18=
EXTT19=
PLAYORDER=
